<svg xmlns="http://www.w3.org/2000/svg" width="256" height="256"><path fill="#1976D2" fill-opacity=".016" fill-rule="evenodd" d="M0 128.004v128.004l128.25-.254 128.25-.254.254-127.75L257.008 0H0zm.485.496c0 70.4.119 99.053.265 63.672s.146-92.98 0-128S.485 58.1.485 128.5"/><path fill="#1976D2" fill-opacity=".199" fill-rule="evenodd" d="M114.221 41.277c-8.518 8.595-8.46 10.233.682 19.059 3.796 3.665 7.674 6.664 8.616 6.664 1.298 0 .823.985-1.952 4.057-2.744 3.038-3.507 4.609-3.037 6.25C119.546 80.849 131.414 92 134.167 92c1.624 0 4.579-2.209 9.244-6.91 5.719-5.763 6.774-7.34 6.361-9.5-.434-2.273-.162-2.59 2.226-2.59 1.965 0 4.568-1.741 9.362-6.26 8.718-8.218 8.757-9.708.481-18.327-8.035-8.368-10.152-8.512-17.56-1.197-4.163 4.112-5.281 4.798-5.281 3.242 0-1.086-2.902-5.008-6.45-8.716-8.488-8.872-9.959-8.91-18.329-.465m8.217 6.107c.34 1.064-.287 3.456-1.441 5.5l-2.043 3.616 2.119-2.479c2.061-2.412 2.157-2.427 3.523-.559.772 1.056 1.404 1.411 1.404.788s-.481-1.429-1.068-1.792-.844-1.246-.569-1.962-.181-2.133-1.013-3.149c-1.468-1.791-1.495-1.79-.912.037M148 58.948c0 5.602.308 7.052 1.5 7.052.833 0 1.5-.889 1.5-2 0-1.442.667-2 2.389-2 1.314 0 3.443-.853 4.73-1.895 2.013-1.63 2.201-2.296 1.341-4.75-.904-2.585-1.493-2.884-6.229-3.157L148 51.895zm3.667-5.281c-1.029 1.029-.788 5.14.342 5.839 1.448.895 4.71-.332 5.356-2.015.99-2.578-3.758-5.765-5.698-3.824m-16.966 4.11c-1.719 1.9-1.702 1.989.465 2.556 2.699.706 2.657.754 1.912-2.178-.589-2.323-.613-2.327-2.377-.378m-3.451 11.939c1.512.229 3.988.229 5.5 0s.275-.416-2.75-.416-4.262.187-2.75.416m7.75 2.649c0 1.315-1.076 1.635-5.5 1.635-3.588 0-5.5-.414-5.5-1.191 0-.655-.661-.318-1.468.75-.808 1.067-1.483 2.986-1.5 4.262-.037 2.719 3.061 6.399 3.721 4.42.559-1.678 9.936-1.67 10.501.009.703 2.089 3.746-1.131 3.746-3.965 0-1.358-.9-3.614-2-5.012-1.481-1.883-2-2.118-2-.908m-12.457 3.566c-.317.512-.118 1.213.441 1.559 1.193.737 3.016-.199 3.016-1.549 0-1.217-2.707-1.225-3.457-.01m12 0c-.317.512-.118 1.213.441 1.559 1.193.737 3.016-.199 3.016-1.549 0-1.217-2.707-1.225-3.457-.01M107 94l-18.5.5-6.5 3.681c-8.904 5.043-18.488 15.302-23.887 25.569L56.93 126h32.835l4.368-6.717c4.609-7.09 14.236-17.283 16.322-17.283.679 0 2.041.891 3.027 1.98 1.738 1.921 1.673 2.137-2.196 7.25-2.194 2.899-6.533 8.757-9.644 13.02-3.111 4.262-5.88 7.75-6.153 7.75s-2.175-.9-4.228-2-4.863-1.99-6.246-1.978c-3.212.028-10.847 3.475-13.765 6.214L69 136.349V130H55.094l-1.041 3.75c-.573 2.063-1.044 4.379-1.047 5.148s-1.036-.131-2.295-2c-5.265-7.817-15.922-10.199-28.171-6.298-7.844 2.498-14.991 9.384-19.358 18.653C.427 155.099 0 157.088 0 164.072c0 7.359.268 8.457 3.052 12.504 1.679 2.44 4.824 5.34 6.988 6.444 8.205 4.186 23.056 3.44 30.374-1.526l3.514-2.385-.485 2.695c-.267 1.483-1.587 9.221-2.933 17.196s-2.743 15.963-3.104 17.75c-.988 4.893 1.407 4.229 10.067-2.792 6.212-5.037 7.558-6.66 8.087-9.75 1.013-5.914 7.397-39.015 9.044-46.888q2.546-12.173 8.82-15.19c2.483-1.194 3.309-1.151 6.425.335l3.576 1.706-2.462 1.877c-1.355 1.032-3.704 2.155-5.222 2.496-3.886.872-2.391 2.456 2.318 2.456 2.168 0 3.941.447 3.941.993 0 1.855-5.073 27.491-5.987 30.257l-.909 2.75h7.881c8.735 0 8.292.371 9.539-8 .368-2.475 1.789-9.338 3.157-15.25L98.168 151l4.666-.035c2.566-.02 5.791-.679 7.166-1.465s2.838-1.445 3.25-1.465c1.223-.057.856 6.234-.673 11.533-.783 2.713-2.162 8.757-3.066 13.432s-1.868 9.287-2.144 10.25c-.462 1.611.685 1.75 14.435 1.75h14.936l.591-3.25c2.289-12.581 6.61-30.75 7.908-33.252 3.527-6.796 9.961-9.349 13.632-5.408 1.172 1.258 2.131 2.87 2.131 3.583 0 2.227-6.018 31.245-7.035 33.918-.531 1.397-.965 2.96-.965 3.474 0 1.201 14.699 1.231 15.44.032.307-.496 1.949-7.565 3.65-15.708 3.661-17.527 5.135-21.559 9.097-24.893 3.434-2.889 5.486-3.114 8.59-.939 3.034 2.125 2.89 4.94-1.277 25.014-1.925 9.272-3.5 17.006-3.5 17.186s3.467.196 7.705.035l7.705-.292 1.045-4.299 1.045-4.298 3.917 4.011c4.076 4.175 10.673 7.092 16.011 7.078 4.186-.01 14.739-3.314 19.002-5.949 4.476-2.766 9.941-9.634 9.201-11.563-.42-1.093-2.239-1.48-6.962-1.48-5.599 0-6.863.373-10.169 3-3.008 2.39-4.748 3-8.565 3-3.983 0-5.139-.444-6.862-2.635-1.165-1.48-2.073-4.11-2.073-6V162h37.824l.838-4.25c.777-3.938.883-3.59 1.458 4.75.561 8.147.591 7.91.315-2.5-.517-19.492-4.319-26.803-15.82-30.42-8.643-2.718-18.382-.282-26.905 6.732-2.635 2.168-4.885 3.772-5 3.565a368 368 0 0 1-2.038-3.979c-1.076-2.122-3.247-4.279-5.284-5.25-6.648-3.17-17.695-1.527-22.955 3.415-2.085 1.959-2.104 1.958-4.012-.15-5.967-6.594-17.966-6.446-25.157.309L147 136.349V130h-6.981c-6.803 0-6.996.07-7.583 2.75-1.195 5.451-1.436 5.863-2.474 4.222-1.445-2.285-1.083-4.238 1.324-7.147 2.166-2.617 2.541-2.69 17.419-3.387l15.204-.713-1.429-2.764c-.786-1.52-3.903-5.846-6.926-9.612l-5.497-6.849 2.372-2.377 2.371-2.377 3.61 2.753c3.837 2.927 11.41 12.469 14.954 18.843l2.136 3.842 15.746-.421c8.66-.232 16.017-.693 16.348-1.024.807-.806-5.379-9.96-11.191-16.562-6.473-7.353-14.097-12.741-20.774-14.682C169.78 92.794 155.444 92.691 107 94m-78.815 47.991c-3.374.797-7.607 4.097-9.312 7.259-.871 1.616-.134 1.75 9.592 1.75H39v-2.929c0-2.781-2.162-6.071-3.99-6.071-.465 0-1.446-.178-2.178-.396-.733-.217-2.824-.043-4.647.387m199.238-.07c-2.452 1.047-8.423 6.829-8.423 8.156 0 .508 4.725.923 10.5.923 10.404 0 10.5-.022 10.5-2.389 0-5.243-7.109-9.025-12.577-6.69m-22.778 7.829c-2.341 5.294-3.619 13.15-2.795 17.176.663 3.239.793 3.022 2.389-4 1.95-8.586 3.195-16.926 2.526-16.926-.254 0-1.208 1.688-2.12 3.75m-152.056-.643c-.99 3.005-2.424 11.391-2.018 11.797.924.925 1.61-.959 2.386-6.561.777-5.605.597-8.168-.368-5.236M.36 164c0 5.225.169 7.363.375 4.75s.206-6.887 0-9.5S.36 158.775.36 164M15 165.777c0 5.151 2.177 7.908 6.868 8.701 4.446.751 9.586-1.028 12.537-4.34 1.487-1.669 3.053-2.138 7.143-2.138 3.854 0 5.398-.418 5.845-1.582C49.062 162.069 48.813 162 31.5 162H15zm32.564 5.93c-.542 1.425-.428 1.54.56.56.684-.679.991-1.486.683-1.793-.308-.308-.867.247-1.243 1.233m27.394 21.371c-1.879 3.512-.499 5.075 4.023 4.555 2.204-.253 4.273-.031 4.598.494.324.525 1.564.618 2.755.207s5.316-.767 9.166-.79c6.783-.043 7-.121 7-2.537v-2.493l-11.166-.007c-6.142-.004-11.504-.345-11.917-.757-1.366-1.365-3.331-.78-4.459 1.328m44.121-1.419c-.055.801-2.394 1.053-7.579.816-7.324-.334-7.5-.287-7.5 2.032 0 2.672 1.559 4.171 2.338 2.249.353-.87.764-.927 1.336-.186.471.611 4.195 1.04 8.672 1 4.315-.038 8.058.275 8.319.696.26.422 1.004.439 1.653.038s2.722-.746 4.606-.767c2.848-.031 3.548-.485 4.139-2.689.711-2.651.71-2.652-4.676-2.379-2.963.15-5.387-.108-5.387-.573 0-.466-1.095-.43-2.433.079-1.707.648-2.579.566-2.921-.275-.351-.863-.51-.875-.567-.041m41.922.416c-.001.317-3.133.469-6.962.339-6.081-.208-7.036.003-7.564 1.665-.859 2.705.34 4.32 2.114 2.847.776-.644 1.411-.776 1.411-.293s6.964.929 15.475.99c14.628.106 15.509.003 16.107-1.88.892-2.811-.662-3.41-8.612-3.321-3.834.043-6.97-.212-6.97-.566 0-.355-1.125-.58-2.499-.5s-2.5.403-2.5.719m29.004.419c-.644.776-1.014 2.219-.824 3.208.322 1.674 2.161 1.803 26.629 1.877 14.456.044 26.468-.22 26.695-.587.226-.366-.207-1.549-.963-2.629-1.274-1.818-2.525-1.953-16.959-1.833-8.57.072-15.583-.232-15.583-.675s-1.021-.417-2.269.057c-2.15.817-6.975.683-12.894-.358-1.58-.279-3.138.104-3.832.94m56.158-.616c-.736.467-1.186 1.922-1 3.235.266 1.884.969 2.407 3.337 2.48 1.65.051 3.543-.325 4.206-.836s1.676-.639 2.25-.284c.619.382 1.044-.373 1.044-1.855 0-4.338-4.098-4.558-5.543-.299-.697 2.057-.763 2.024-1.165-.569-.451-2.916-.981-3.233-3.129-1.872m-109.147 1.603c-2.003 2.413-.512 4.319 3.379 4.319 2.588 0 3.694-.506 4.134-1.891.33-1.04.38-2.247.112-2.682-.895-1.448-6.364-1.266-7.625.254m46.945.066c-1.432 1.725-.574 4.453 1.401 4.453 1.307 0 2.638-2.005 2.638-3.975 0-1.556-2.863-1.895-4.039-.478"/><path fill="#1976D2" fill-opacity=".259" fill-rule="evenodd" d="M114.621 42.019c-3.641 3.86-6.621 7.669-6.621 8.464s1.688 2.595 3.75 4.001c3.043 2.075 3.811 2.27 4.073 1.036.178-.836 1.143-1.52 2.143-1.52 1.001 0 2.093-.712 2.427-1.582.848-2.209.761-2.631-.393-1.918-.55.34-1-.323-1-1.472s.675-2.35 1.5-2.666c.825-.317 1.5-1.203 1.5-1.969S122.684 43 123.519 43c1.09 0 1.354.656.936 2.324-.371 1.475-.012 2.799.981 3.623 1.858 1.542 2.109 3.49.314 2.44-.687-.402-.402.236.634 1.418s2.273 1.907 2.75 1.612.866-.043.866.558c0 1.428 4.325.83 6.389-.883.886-.735 1.611-2.303 1.611-3.485C138 47.65 126.142 35 123.37 35c-1.339 0-4.581 2.6-8.749 7.019m29.817 6.116c-8.177 7.852-8.707 9.442-4.359 13.072 5.189 4.332 6.921 3.801 6.921-2.125 0-7.311.535-8.082 5.607-8.082 9.747 0 11.588 9.17 2.393 11.921-3.215.962-3.018 1.02 2.419.717 4.916-.275 6.301-.774 8.167-2.944 1.364-1.585 2.044-3.391 1.731-4.591C166.62 53.438 154.603 42 152.5 42c-.92 0-4.548 2.761-8.062 6.135m7.337 6.423c-.769.769.273 4.442 1.26 4.442 1.886 0 3.965-1.311 3.965-2.5 0-1.799-3.913-3.254-5.225-1.942M125.486 67.75c-6.858 7.171-7.575 8.955-4.657 11.595 2.412 2.183 3.171 2.088 3.171-.397 0-1.128 1.013-3.825 2.25-5.992 2.159-3.781 2.458-3.941 7.381-3.948 4.674-.007 5.365.298 7.75 3.425 1.441 1.889 2.619 4.589 2.619 6 0 3.071 1.065 3.258 3.464.607 1.149-1.27 1.564-2.791 1.18-4.323C147.833 71.488 136.671 61 134.045 61c-1.293 0-4.592 2.602-8.559 6.75m4.152 3.75c-.463 1.209.384 1.5 4.362 1.5s4.825-.291 4.362-1.5c-.372-.968-1.919-1.5-4.362-1.5s-3.99.532-4.362 1.5M127 76c0 .55.45 1 1 1s1-.45 1-1-.45-1-1-1-1 .45-1 1m12 0c0 .55.45 1 1 1s1-.45 1-1-.45-1-1-1-1 .45-1 1m-18.638 19.46c-3.842 1.403-9.362 4.452-9.362 5.172 0 .319 1.125 1.465 2.5 2.547 1.375 1.081 2.5 2.424 2.5 2.984s-1.924 3.34-4.275 6.178-5.952 7.634-8.002 10.659c-2.049 3.025-4.547 6.555-5.551 7.845l-1.824 2.345-3.909-2.095c-6.721-3.602-15.617-1.981-20.844 3.799-2.585 2.858-3.116 2.662-3.105-1.144l.01-3.25H55.591l-1.697 5.5c-.934 3.025-1.742 4.939-1.796 4.253s-1.688-3.007-3.632-5.158c-5.601-6.201-14.501-7.493-26.845-3.898-6.444 1.877-15.435 11.566-18.871 20.334-4.781 12.202-3.429 22.128 3.907 28.681 7.932 7.086 29.186 6.754 35.215-.549 1.792-2.171 3.525-2.14 2.686.047-1.102 2.872-6.792 39.389-6.226 39.955.55.551 13.328-9.287 15.275-11.759.608-.773 1.589-4.106 2.18-7.406 9.002-50.301 11.334-57.682 18.66-59.056 2.545-.477 4.292-.19 6.12 1.008 3.08 2.018 2.766 3.545-1.141 5.548l-2.926 1.5 3.283.316c3.828.368 3.891-1.128-.893 21.129-1.59 7.394-2.89 13.602-2.89 13.794s3.255.216 7.234.055l7.233-.294 3.215-15.895c1.768-8.742 3.449-16.504 3.735-17.25.337-.877 2.206-1.357 5.302-1.361 2.629-.004 6.07-.679 7.645-1.5 5.797-3.024 5.827-2.555 1.136 18.075-1.925 8.466-3.5 16.089-3.5 16.94 0 1.335 1.935 1.508 14.196 1.268l14.196-.277 3.234-15.932c4.482-22.079 6.497-26.065 13.773-27.245 2.707-.44 4.156-.131 5.624 1.197 3.105 2.811 2.999 3.709-4.686 39.73l-.587 2.75h7.106c6.552 0 7.146-.175 7.615-2.25.279-1.238 2.086-9.405 4.015-18.151 2.623-11.892 4.15-16.743 6.055-19.242 4.494-5.891 12.069-5.7 13.804.349.697 2.433.18 6.428-2.202 16.988-1.712 7.593-3.403 15.718-3.756 18.056l-.643 4.25h14.057l1.175-4.898 1.175-4.899 4.336 4.336c5.161 5.162 10.448 6.888 19.013 6.208 8.574-.681 15.703-4.067 21.025-9.986 2.456-2.732 4.216-5.371 3.911-5.864s-3.608-.897-7.34-.897c-5.473 0-7.13.38-8.562 1.962-2.46 2.718-7.999 4.361-12.107 3.59-4.024-.755-6.56-4.04-6.777-8.779l-.15-3.273 18.992-.5 18.991-.5.64-3c1.044-4.892.942-11.726-.238-15.977-1.488-5.358-7.328-11.025-12.921-12.538-4.94-1.336-14.11-.747-18.609 1.195-3.238 1.397-10.233 6.413-12.095 8.67-1.418 1.72-1.278 1.842-3.502-3.055-2.272-5.002-6.698-7.229-14.258-7.176-6.307.045-10.669 1.701-13.907 5.279-2.427 2.681-3.026 2.642-4.361-.288-.657-1.442-2.859-3.066-5.55-4.094-6.08-2.322-14.107-.769-18.22 3.524-3.634 3.793-4.53 3.731-4.216-.29l.254-3.25h-12.873l-.856 3.5c-1.584 6.47-1.866 6.699-3.446 2.798-1.449-3.575-1.408-3.823 1.206-7.25 2.1-2.753 3.419-3.548 5.888-3.548 4.228 0 5.581-1.57 5.581-6.477 0-2.243.755-5.191 1.678-6.55 3.676-5.418 9.579-11.973 10.781-11.973 2.262 0 12.223 10.446 16.995 17.823l4.643 7.177h6.404c3.523 0 7.551-.522 8.952-1.161 2.394-1.09 2.547-1.603 2.547-8.522 0-7.229-.074-7.442-4.103-11.813-2.256-2.448-6.837-5.817-10.18-7.488l-6.078-3.037-25.207.218c-14.447.125-26.429.664-28.07 1.263m-94.983 46.977c-2.793 1.215-8.379 7.175-8.379 8.94 0 .379 5.063.561 11.25.406l11.25-.283.315-2.731c.71-6.169-7.02-9.56-14.436-6.332m201.066-.478c-2.272.92-8.445 7.554-8.445 9.076 0 1.317 21.697 1.265 22.512-.055.991-1.603-1.475-7.89-3.526-8.988-2.206-1.18-7.665-1.198-10.541-.033M51.23 152.672c-1.22 7.669-1.037 9.535.758 7.74C53.281 159.119 54.546 145 53.369 145c-.505 0-1.467 3.452-2.139 7.672M204.098 150c-2.659 6.088-4.122 19.249-2.268 20.395 1.729 1.068 5.675-17.096 4.999-23.011-.304-2.669-.508-2.474-2.731 2.616M127 160.5c0 .825.177 1.5.393 1.5s.652-.675.969-1.5.139-1.5-.393-1.5c-.533 0-.969.675-.969 1.5m-112.994 3.25c.023 7.482 3.643 11.253 10.791 11.246C28.57 174.992 35 171.853 35 170.015c0-.572 2.574-1.015 5.893-1.015 6.126 0 7.107-.702 7.107-5.082 0-1.816-.908-1.918-17-1.918-15.526 0-17 .152-16.994 1.75m111.661 4.917c-.367.366-.653 1.379-.637 2.25.025 1.3.221 1.257 1.092-.242 1.077-1.852.765-3.228-.455-2.008m-78.981 3.425c-.525 2.008-.469 2.021 1.384.345 2.296-2.078 2.377-2.437.547-2.437-.761 0-1.63.941-1.931 2.092m28.981 20.575c-1.54 1.539-.611 4.333 1.44 4.333 1.51 0 1.935-.448 1.5-1.582-.334-.87-.607-1.995-.607-2.5 0-1.069-1.368-1.217-2.333-.251m29.064 1.958c-.249 1.306-.066 2.375.408 2.375.473 0 .861-.505.861-1.122 0-.794.424-.771 1.447.078 1.638 1.36 6.675 1.067 7.788-.452.469-.641.74-.588.75.146.008.654 1.589 1.15 3.662 1.15 2.138 0 3.128-.321 2.393-.775-.842-.521-.907-.989-.197-1.428.581-.359 1.523.218 2.092 1.282.859 1.604 1.765 1.839 5.3 1.378 4.26-.556 5.721-1.591 5.75-4.074.01-.922-.661-1.094-2.235-.573-2.75.911-22.75 1.147-22.75.269 0-.346-1.083-.629-2.407-.629-1.74 0-2.534.658-2.862 2.375M138.2 193.2c-.66.66-1.2 1.785-1.2 2.5 0 1.859 6.63 1.707 7.349-.168.642-1.671-.848-2.959-2.349-2.032-.55.34-1 .141-1-.441 0-1.409-1.316-1.343-2.8.141m8.8 1.314c0 2.349 2.761 2.992 4.235.986.454-.618.74-.518.75.261.011.959 3.481 1.241 14.515 1.179 13.893-.078 14.5-.167 14.5-2.118q0-2.037-1.435-1.485c-.79.303-1.617.013-1.838-.643-.305-.908-.771-.889-1.943.077-1.153.952-2.241 1.006-4.325.213-1.777-.675-3.132-.711-3.744-.099-.527.527-1.579.721-2.337.43-.856-.329-1.402.175-1.441 1.328-.049 1.438-.287 1.298-1.052-.619-.775-1.943-1.175-2.172-1.86-1.064-.722 1.168-1.144 1.186-2.449.103-.867-.719-1.576-.915-1.576-.435 0 .479-1.125.872-2.5.872s-2.5-.281-2.5-.625-1.125-.625-2.5-.625c-1.93 0-2.5.516-2.5 2.264m43.035-.58c-1.382 2.584-1.309 3.066.465 3.066.933 0 1.5-.944 1.5-2.5 0-3.001-.573-3.166-1.965-.566m7.98.23c-.015 2.643.04 2.663 7.235 2.64 3.988-.014 7.899-.537 8.692-1.164 1.109-.877 1.268-.851.691.11-.551.916.31 1.25 3.225 1.25 2.245 0 4.195-.544 4.48-1.25.403-1 .52-1 .583 0 .043.688.556 1.25 1.138 1.25s.781-.45.441-1-.141-1 .441-1 1.059.478 1.059 1.063c0 1.29 4.206.837 5.235-.563.476-.648.74-.618.75.086.008.597 1.855 1.158 4.105 1.246 2.249.089 4.575.461 5.169.828.696.43.842.046.411-1.078-.369-.96-.67-2.207-.67-2.771s-.661-.771-1.468-.462c-.807.31-1.747.111-2.089-.441-.342-.554-1.143-.637-1.782-.185-.639.451-7.348.778-14.911.728-10.769-.072-13.75.195-13.75 1.229 0 .726-.436 1.32-.969 1.32s-.747-.578-.476-1.284c.341-.887-.518-1.273-2.781-1.25-1.801.019-3.605-.416-4.009-.966s-.741.199-.75 1.664M246 194.5c0 1.375.45 2.5 1 2.5s1-1.125 1-2.5-.45-2.5-1-2.5-1 1.125-1 2.5m5.182 0c-.892 1.957-.861 2.5.139 2.5 1.654 0 3.679-2.036 3.679-3.7 0-2.242-2.626-1.416-3.818 1.2m-172.167-.64c.009.352.459 1.315 1 2.14.806 1.228 1.141 1.258 1.846.166.692-1.072.982-1.019 1.478.275.458 1.195 1.33 1.434 3.389.93 1.525-.374 3.055-1.111 3.401-1.638.357-.545.841-.371 1.119.404.41 1.138.86 1.144 2.726.039 1.229-.728 1.937-.84 1.572-.25-.426.688.614 1.074 2.895 1.074 2.738 0 3.559-.408 3.559-1.769 0-1.583-1.212-1.783-11.5-1.891-6.325-.066-11.493.167-11.485.52m105.116.482c-1.224 1.474-.54 2.658 1.536 2.658.733 0 1.333-.9 1.333-2 0-2.307-1.26-2.596-2.869-.658M194 195c0 1.1.633 2 1.406 2 .914 0 1.224-.7.884-2-.288-1.1-.921-2-1.407-2-.485 0-.883.9-.883 2"/><path fill="#1976D2" fill-opacity=".987" fill-rule="evenodd" d="M79.825 130.367c-2.021.74-5.508 2.798-7.75 4.573L68 138.168V131H56.056l-1.616 5.558-1.615 5.557-2.778-4.38c-3.702-5.837-7.933-7.738-17.198-7.725-11.382.015-20.007 4.908-26.289 14.915C3.722 149.446 0 160.914 0 165.139c0 5.59 3.909 12.612 8.837 15.877 5.402 3.578 9.278 4.388 18.01 3.763 6.938-.497 11.035-2.082 14.969-5.795 4.048-3.82 4.047-3.779-1.235 25.941-1.41 7.934-2.455 14.531-2.322 14.66.132.129 3.616-2.464 7.741-5.763l7.5-5.997 2.11-10.162c1.16-5.59 3.567-17.802 5.348-27.138s3.919-18.676 4.75-20.754c3.097-7.738 10.115-10.761 16.386-7.057l2.902 1.715 5.002-4.927c2.751-2.71 5.002-5.271 5.002-5.691 0-1.334-4.371-3.642-8-4.226-1.926-.309-5.152.042-7.175.782m74.675 1.202c-1.65.857-4.15 2.654-5.555 3.994-3.347 3.193-3.62 3.096-3.129-1.114l.415-3.55-6.294.3-6.293.301-1.186 5.28c-1.332 5.933-2.458 7.801-2.458 4.078 0-1.362-.648-3.349-1.441-4.417-1.377-1.856-1.705-1.68-7.452 3.981-3.307 3.257-5.81 6.249-5.564 6.648.379.612-5.603 30.802-7.168 36.18-.468 1.608.633 1.75 13.558 1.75 7.737 0 14.067-.214 14.067-.476s1.392-7.575 3.093-16.25c3.518-17.946 6.227-24.249 11.499-26.751 4.089-1.94 7.958-1.139 10.071 2.085 1.321 2.016 1.377 3.352.384 9.127-1.174 6.828-5.62 27.279-6.634 30.515-.485 1.55.233 1.749 6.27 1.742l6.817-.007 3.856-17.743c2.121-9.758 4.715-19.157 5.766-20.886 1.707-2.81 7.088-6.356 9.644-6.356.53 0 2.15.933 3.599 2.073 3.559 2.799 3.45 6.061-.865 25.788-1.925 8.801-3.5 16.278-3.5 16.616s3.019.481 6.709.319l6.708-.296.805-4c1.352-6.714 1.444-6.738 6.492-1.711 7.296 7.265 14.19 8.742 25.046 5.363 7.203-2.242 14.106-6.85 16.547-11.046l1.806-3.106h-6.997c-4.062 0-7.287.467-7.686 1.113-.378.613-2.65 1.981-5.047 3.042-8.356 3.696-16.005-1.072-15.192-9.469l.309-3.186 18.69-.272c21.546-.313 20.104.493 20.104-11.243 0-7.18-1.471-10.929-5.955-15.171-3.936-3.724-7.379-4.814-15.208-4.814-7.698 0-13.893 2.536-20.951 8.578-3.709 3.175-4.248 3.373-4.762 1.751-2.624-8.269-6.187-10.571-15.63-10.102-5.645.281-7.438.846-11.281 3.555l-4.57 3.221-3.502-3.501c-3.188-3.188-4.014-3.501-9.218-3.496-3.212.004-7.032.689-8.717 1.563m71.921 10.288c-4.53 2.101-8.421 6.403-8.421 9.311 0 1.768.769 1.878 11.25 1.615l11.25-.283.304-3.131c.383-3.934-3.092-8.162-7.304-8.888-1.828-.315-4.594.223-7.079 1.376m-202.964 1.006c-3.352 2.044-6.457 6.196-6.457 8.635 0 1.347 1.58 1.528 11.25 1.285l11.25-.283.307-3.693c.438-5.272-2.343-7.808-8.557-7.803-2.861.002-5.96.741-7.793 1.859m28.118 5.406c-.373 2.877-1.176 6.919-1.785 8.981L48.683 161H13.746l.481 5.01c.566 5.891 2.742 8.706 7.404 9.581 4.417.828 7.561-.04 11.186-3.091 2.399-2.018 4.056-2.5 8.596-2.5h5.625l-.669 2.75c-.668 2.747-.666 2.748 1.481.845 2.344-2.077 2.799-4.212 1.025-4.803-1.757-.586-.052-6.512 2.03-7.057 2.076-.543 3.095-4.592 3.095-12.301 0-7.025-1.568-7.778-2.425-1.165m151.887 1.981c-2.921 6.494-3.956 16.911-2.112 21.25.81 1.906.896 1.882 1.818-.5.532-1.375 1.837-6.712 2.899-11.86 3.309-16.023 2.241-19.664-2.605-8.89m-75.117.293c-.81 2.11.542 3.25 1.694 1.428 1.224-1.936 1.2-2.971-.07-2.971-.568 0-1.298.694-1.624 1.543m-44.797.707c-.394 1.266-5.401 25.937-6.291 31l-.484 2.75h12.876l3.247-15.25c1.785-8.387 3.488-16.262 3.783-17.5.517-2.161.276-2.25-6.102-2.25-4.438 0-6.769.415-7.029 1.25M127 160.559c0 1.451.433 2.292 1 1.941.55-.34 1-1.491 1-2.559s-.45-1.941-1-1.941-1 1.152-1 2.559m-1.333 7.108c-1.038 1.037-.784 4.333.333 4.333.55 0 1-1.125 1-2.5 0-2.618-.231-2.936-1.333-1.833m-2.942 11.275c-.562 2.151.09 3.29 1.414 2.472 1.133-.7 1.114-4.414-.022-4.414-.486 0-1.112.874-1.392 1.942m-30.646 16.641c.048 1.165.285 1.402.604.605.289-.722.253-1.585-.079-1.917s-.568.258-.525 1.312m154 0c.048 1.165.285 1.402.604.605.289-.722.253-1.585-.079-1.917s-.568.258-.525 1.312"/></svg>